<?xml version="1.0" standalone="no"?>
<!DOCTYPE svg PUBLIC "-//W3C//DTD SVG 20010904//EN"
 "http://www.w3.org/TR/2001/REC-SVG-20010904/DTD/svg10.dtd">
<svg version="1.0" xmlns="http://www.w3.org/2000/svg"
 width="550.000000pt" height="550.000000pt" viewBox="0 0 550.000000 550.000000"
 preserveAspectRatio="xMidYMid meet">
<metadata>
Created by potrace 1.14, written by Peter Selinger 2001-2017
</metadata>
<g transform="translate(0.000000,550.000000) scale(0.100000,-0.100000)"
fill="#000000" stroke="none">
<path d="M1240 5252 c0 -7 -8 -12 -17 -11 -28 4 -117 -12 -130 -23 -7 -6 -20
-8 -28 -4 -8 3 -15 1 -15 -5 0 -6 -7 -9 -15 -5 -8 3 -15 2 -15 -3 0 -8 -56
-25 -72 -22 -5 0 -8 -3 -8 -8 0 -5 -13 -12 -30 -16 -16 -4 -30 -11 -30 -16 0
-6 -4 -7 -10 -4 -5 3 -10 1 -10 -4 0 -6 -8 -11 -19 -11 -10 0 -24 -7 -31 -15
-7 -8 -18 -15 -25 -15 -6 0 -20 -9 -30 -20 -10 -11 -22 -20 -27 -20 -4 0 -17
-9 -28 -20 -12 -12 -26 -18 -32 -14 -6 4 -8 3 -5 -3 4 -6 -5 -19 -19 -29 -35
-26 -74 -62 -74 -69 0 -10 -38 -43 -44 -37 -3 3 -6 0 -6 -7 0 -6 -10 -23 -22
-37 -52 -57 -58 -64 -52 -64 4 0 1 -6 -5 -13 -6 -8 -7 -18 -3 -22 4 -5 2 -5
-5 -1 -14 7 -46 -51 -36 -67 3 -5 1 -7 -5 -3 -10 6 -62 -93 -62 -120 0 -8 -4
-14 -9 -14 -7 0 -23 -52 -26 -85 0 -5 -5 -17 -10 -25 -9 -14 -16 -47 -18 -87
0 -13 -4 -23 -8 -23 -4 0 -5 -13 -4 -30 1 -16 0 -30 -4 -30 -10 0 -7 -223 3
-239 6 -10 6 -12 -2 -7 -7 4 -12 2 -12 -3 0 -6 4 -11 9 -11 5 0 9 -15 10 -32
2 -63 13 -108 25 -101 7 4 7 2 -1 -7 -8 -9 -9 -19 -2 -32 5 -10 7 -24 3 -30
-4 -7 -3 -8 4 -4 7 4 12 4 13 -1 4 -41 12 -69 22 -75 7 -4 9 -8 5 -8 -4 0 1
-16 12 -36 12 -21 15 -33 8 -29 -7 4 -6 1 3 -7 9 -7 19 -22 22 -33 4 -11 23
-44 42 -73 19 -30 35 -56 35 -59 0 -2 6 -10 12 -17 7 -7 28 -31 46 -54 54 -66
66 -78 84 -85 10 -3 18 -12 18 -19 0 -7 16 -23 35 -36 19 -12 35 -27 35 -33 0
-5 5 -7 10 -4 6 3 13 -1 16 -9 3 -9 12 -16 19 -16 7 0 15 -3 17 -7 4 -9 48
-36 98 -61 19 -9 37 -20 38 -24 2 -5 9 -8 15 -8 7 -1 30 -9 52 -20 22 -11 47
-19 55 -20 9 0 26 -8 39 -17 14 -9 21 -11 17 -5 -4 7 -2 12 3 12 6 0 11 -5 11
-11 0 -5 4 -8 9 -4 5 3 12 1 16 -5 3 -5 21 -10 40 -10 19 0 37 -5 40 -10 5 -8
11 -7 21 1 11 9 14 9 14 -1 0 -8 3 -10 7 -7 3 4 12 2 20 -4 7 -6 13 -7 13 -2
0 5 9 9 19 9 11 0 18 -3 16 -7 -2 -3 43 -6 100 -6 58 0 105 4 105 8 0 4 9 5
19 2 10 -3 29 1 41 7 12 7 20 7 16 2 -4 -7 3 -7 21 -2 35 11 140 39 173 46 13
3 28 10 31 16 4 6 14 8 24 5 9 -4 14 -3 11 2 -3 5 6 12 21 16 15 3 39 15 55
26 15 11 28 17 28 14 0 -4 7 1 16 9 8 9 22 16 30 16 8 0 14 5 14 11 0 5 13 15
29 20 16 6 32 17 35 25 3 8 12 14 21 14 8 0 15 4 15 9 0 6 13 18 29 27 17 10
28 21 26 24 -2 4 6 13 17 21 20 13 44 36 84 80 8 9 14 21 14 27 0 7 6 11 13
10 6 -2 11 3 9 10 -1 7 5 15 13 18 8 4 15 10 15 15 0 5 18 36 40 68 22 32 40
66 40 75 0 9 4 16 8 16 6 0 40 85 80 200 6 20 13 60 15 88 0 12 4 22 8 22 3 0
5 10 5 23 -1 12 2 30 7 41 7 14 6 16 -4 11 -9 -6 -10 -4 -3 6 12 19 14 191 1
207 -6 8 -5 12 4 12 11 0 11 2 -1 10 -13 9 -13 10 0 10 10 0 11 3 4 8 -6 4
-10 17 -9 30 1 12 -1 22 -5 22 -5 0 -10 36 -13 88 0 6 -3 12 -7 12 -6 0 -8 8
-12 50 -1 11 -6 20 -10 20 -4 0 -8 11 -8 25 0 14 -4 25 -10 25 -5 0 -9 3 -8 8
3 17 -41 112 -53 112 -5 0 -6 7 -3 15 4 8 2 15 -4 15 -5 0 -13 11 -16 25 -4
14 -10 24 -14 21 -4 -2 -14 10 -22 27 -8 18 -23 40 -34 49 -12 10 -17 17 -13
18 10 0 -33 47 -107 118 -88 84 -95 90 -100 85 -3 -3 -8 2 -12 11 -3 9 -12 16
-18 16 -7 0 -22 9 -33 20 -12 10 -33 22 -47 26 -14 3 -23 10 -21 15 3 5 -7 11
-22 15 -15 4 -30 10 -33 14 -4 5 -41 21 -135 56 -23 8 -38 13 -60 17 -8 2 -18
6 -21 10 -4 4 -25 7 -46 7 -22 0 -37 3 -35 8 6 8 -17 10 -190 15 -90 2 -133 0
-133 -7 0 -6 -5 -4 -10 4 -7 11 -10 11 -10 2z"/>
<path d="M3004 5248 c-3 -4 -10 -5 -16 -2 -7 4 -8 2 -4 -5 4 -6 0 -14 -8 -17
-9 -3 -13 -10 -10 -15 3 -5 1 -9 -5 -9 -7 0 -11 -339 -11 -1080 0 -814 3
-1079 12 -1074 7 5 9 2 6 -8 -4 -9 3 -23 15 -34 21 -18 57 -19 1097 -20 706
-1 1083 2 1097 9 55 25 52 -32 52 1131 0 712 -4 1076 -10 1076 -6 0 -8 4 -5 9
4 5 -9 18 -26 29 -32 19 -57 20 -1106 19 -591 0 -1075 -4 -1078 -9z"/>
<path d="M3073 2499 c-43 -12 -97 -69 -111 -118 -9 -28 -12 -305 -12 -1032 0
-943 1 -996 19 -1034 21 -46 70 -92 109 -102 15 -4 479 -7 1032 -7 1115 1
1050 -3 1104 67 16 20 30 55 34 84 4 26 7 491 7 1033 -1 880 -3 988 -17 1015
-22 41 -66 80 -107 94 -43 14 -2009 14 -2058 0z m438 -54 c1 -17 1 -100 0
-301 l-1 -190 -252 0 -252 1 -1 190 c0 239 9 272 87 298 44 15 418 17 419 2z
m1127 -242 l1 -253 -250 0 c-137 0 -249 3 -250 8 -4 27 -3 476 1 482 8 13 49
15 282 15 l216 0 0 -252z m500 232 c57 -34 64 -64 65 -286 l2 -199 -252 0
-253 0 0 253 0 253 203 -1 c180 -1 206 -3 235 -20z m-1063 -792 l-1 -248 -252
-3 -252 -2 0 250 0 250 253 0 252 0 0 -247z m1125 -3 c0 -193 -3 -250 -12
-251 -54 -4 -448 -3 -466 1 l-23 5 0 205 c0 113 0 224 0 248 l1 42 250 0 250
0 0 -250z m-1690 -560 c0 -193 -3 -250 -12 -251 -17 -1 -436 -1 -468 0 l-25 1
2 222 c1 123 2 235 2 251 l1 27 250 0 250 0 0 -250z m1126 -2 c0 -170 -3 -248
-10 -251 -6 -2 -119 -3 -251 -3 l-240 1 -1 253 -1 252 251 -2 251 -3 1 -247z
m-1126 -563 l0 -255 -201 0 c-303 0 -302 -1 -302 274 1 100 1 193 2 208 l1 27
250 0 250 1 0 -255z m1125 -1 l1 -252 -251 2 -250 1 -2 240 c-1 132 0 245 1
250 2 7 92 10 252 10 l249 0 0 -251z m566 226 c0 -14 1 -104 1 -202 1 -157 -1
-180 -18 -209 -38 -64 -58 -69 -278 -69 -108 -1 -200 1 -204 4 -6 3 -9 501 -3
501 0 0 114 0 251 0 l250 0 1 -25z"/>
<path d="M718 2422 c-10 -2 -18 -8 -18 -13 0 -6 -3 -8 -7 -6 -5 3 -19 0 -33
-6 -14 -5 -31 -11 -39 -13 -8 -1 -17 -8 -21 -14 -4 -7 -10 -10 -13 -8 -4 1
-15 -4 -25 -13 -10 -8 -26 -18 -35 -22 -9 -3 -17 -11 -17 -16 0 -5 -9 -13 -20
-16 -11 -4 -18 -11 -15 -16 4 -5 0 -9 -7 -9 -7 -1 -31 -28 -53 -62 -59 -91
-75 -124 -77 -165 -1 -7 -5 -13 -9 -13 -4 0 -6 -11 -4 -25 1 -14 -1 -25 -5
-25 -12 0 -10 -194 3 -202 9 -6 9 -8 -1 -8 -8 0 -10 -5 -5 -12 4 -7 9 -22 10
-33 9 -67 25 -125 34 -125 5 0 9 -12 9 -26 0 -37 123 -284 151 -304 4 -3 9
-12 11 -20 2 -8 13 -25 26 -38 12 -12 22 -26 22 -30 0 -4 11 -20 25 -35 14
-15 23 -27 19 -27 -4 0 2 -8 12 -17 11 -10 33 -36 49 -58 16 -22 45 -55 63
-72 18 -18 31 -33 28 -33 -2 0 12 -17 32 -38 20 -21 69 -73 107 -116 39 -43
107 -116 151 -162 45 -46 80 -84 78 -84 -2 0 8 -11 22 -25 14 -14 29 -25 34
-25 6 0 10 -4 10 -9 0 -16 157 -171 173 -171 9 0 18 9 22 19 3 11 15 23 25 26
11 3 19 9 18 13 -2 4 48 58 109 120 61 61 110 112 108 112 -1 0 19 23 46 50
27 28 49 56 49 62 0 6 3 9 6 5 7 -7 54 41 54 55 0 5 5 6 10 3 6 -3 10 -3 10 2
0 4 11 21 25 37 14 16 25 33 25 38 0 5 5 6 10 3 6 -3 10 -2 10 2 0 8 41 57
100 120 12 12 22 26 23 30 1 4 17 23 35 41 19 17 31 32 28 32 -3 0 3 9 14 20
11 11 20 25 20 31 0 5 5 7 10 4 6 -3 10 -1 10 5 0 10 37 68 51 80 8 7 123 194
121 197 -2 3 38 93 59 135 5 10 9 25 9 33 0 8 4 15 9 15 5 0 8 14 7 30 -1 17
1 30 4 30 3 0 7 8 8 18 2 22 10 57 12 57 1 0 3 16 4 35 1 19 5 41 9 48 5 7 4
12 -3 12 -7 0 -8 6 0 19 6 12 6 22 1 25 -10 7 -9 25 2 44 5 6 4 12 -1 12 -5 0
-8 10 -7 23 1 12 -2 36 -8 52 -5 17 -9 38 -9 48 1 9 -3 17 -8 17 -4 0 -6 10
-2 22 3 14 1 19 -6 14 -6 -3 -13 6 -17 24 -4 16 -11 30 -16 30 -6 0 -8 4 -5 8
3 5 -4 14 -14 22 -10 8 -17 17 -15 20 3 4 -8 19 -24 33 -16 14 -30 29 -32 34
-11 29 -170 126 -206 126 -7 0 -13 3 -13 7 0 14 -201 22 -217 8 -8 -7 -13 -7
-13 -1 0 6 -11 8 -25 5 -14 -2 -22 -9 -19 -14 3 -5 0 -8 -7 -7 -21 3 -72 -13
-87 -28 -8 -7 -18 -11 -23 -8 -5 4 -9 1 -9 -5 0 -6 -4 -8 -10 -5 -5 3 -10 2
-10 -2 0 -5 -12 -16 -28 -25 -45 -27 -202 -187 -202 -206 0 -15 -40 -56 -47
-49 -3 4 -3 7 1 7 4 0 -7 20 -24 45 -17 25 -36 45 -41 45 -6 0 -7 5 -4 10 3 6
-1 13 -9 16 -9 3 -13 10 -10 15 3 5 2 9 -3 9 -15 0 -72 57 -65 65 4 5 2 5 -5
1 -6 -3 -19 4 -27 16 -9 12 -16 19 -16 15 0 -4 -7 -2 -15 5 -9 7 -21 18 -28
23 -24 20 -105 55 -126 55 -12 0 -20 4 -17 8 2 4 -3 9 -12 10 -32 5 -227 8
-244 4z"/>
</g>
</svg>
