<?xml version="1.0" encoding="UTF-8"?>
<svg id="Favicon" xmlns="http://www.w3.org/2000/svg" viewBox="0 0 494.88 494.88">
  <path d="M296.64,494.88h-97.92c-.6979-.1125-1.3939-.3073-2.094-.323-2.8779-.0648-5.757-.0863-8.6358-.1039-21.2727-.1304-42.5349-.5487-63.7696-1.9619-13.0094-.8657-25.9679-2.1345-38.8045-4.4566-10.4033-1.8819-20.5945-4.5272-30.3715-8.64-18.2811-7.6902-31.3251-20.614-39.0824-38.8835-3.1662-7.4568-5.4723-15.1744-7.243-23.0644-3.0176-13.4467-4.6831-27.0954-5.6098-40.8145-.8996-13.319-1.4952-26.6639-1.936-40.007-.4567-13.8227-.5622-27.657-.8417-41.4859-.0158-.7817-.2169-1.5596-.3318-2.3393,0-30.24,0-60.48,0-90.72.1146-.7003.3141-1.3986.331-2.1012.208-8.6284.4463-17.2566.5658-25.8864.2712-19.5866.8346-39.1577,2.4572-58.6886.9335-11.2364,2.2475-22.4175,4.4362-33.4827,1.9268-9.7408,4.5598-19.2712,8.582-28.3847,6.2558-14.1742,15.7577-25.479,29.2666-33.2659,5.4894-3.1642,11.2725-5.671,17.271-7.6885,13.9405-4.6889,28.3697-6.9664,42.9218-8.5693,14.7861-1.6287,29.6369-2.4264,44.4975-2.838,16.461-.456,32.9306-.5964,49.3962-.8905.7863-.014,1.5698-.1858,2.3546-.2842,30.4,0,60.8,0,91.2,0,.625.0978,1.2487.271,1.8752.2815,5.356.0896,10.7124.1641,16.069.216,19.5901.1898,39.1703.6363,58.7278,1.8889,13.2498.8486,26.449,2.1075,39.5259,4.4429,10.8809,1.9432,21.5389,4.6814,31.7222,9.0912,16.6027,7.1897,28.9681,18.7778,36.7474,35.1782,3.3698,7.1043,5.8357,14.5202,7.7555,22.1308,3.1953,12.6672,4.914,25.5747,6.1022,38.5527,1.4511,15.8491,2.1476,31.7451,2.4537,47.6555.1431,7.4355.1017,14.8744.2089,22.3108.0377,2.6186.2691,5.2344.4121,7.8514v115.68c-.0994.6993-.2699,1.3969-.2866,2.0982-.0921,3.8372-.202,7.6754-.2043,11.5133-.0097,16.0801-.425,32.1451-1.4066,48.1989-.8447,13.8151-2.0738,27.5825-4.4496,41.2262-1.8412,10.5731-4.4468,20.9356-8.5144,30.9081-7.7688,19.0465-21.0881,32.5138-40.1176,40.3691-8.9087,3.6774-18.1456,6.1683-27.579,8.0054-14.8629,2.8945-29.9052,4.3144-44.9948,5.1591-12.2147.6837-24.4477,1.0999-36.6781,1.4244-10.3935.2757-20.795.2428-31.1926.3723-.9399.0117-1.8775.2122-2.8162.3251Z" style="fill: #242424; stroke-width: 0px;"/>
  <path d="M213.284,275.8356H71.6215c-3.1308,0-5.6688,2.5388-5.6688,5.6706v141.6589c0,3.1318,2.538,5.6706,5.6688,5.6706h141.6625c3.1308,0,5.6687-2.5388,5.6687-5.6706v-141.6589c0-3.1318-2.538-5.6706-5.6687-5.6706ZM168.8975,290.0643c0-3.1556,2.5665-5.7229,5.7212-5.7229h30.1097c3.1546,0,5.7212,2.5673,5.7212,5.7229v30.0793c0,3.1556-2.5665,5.723-5.7212,5.723h-30.1097c-3.1547,0-5.7212-2.5673-5.7212-5.723v-30.0793ZM116.0079,414.7117c0,3.1556-2.5665,5.723-5.7212,5.723h-30.1097c-3.1546,0-5.7212-2.5673-5.7212-5.723v-30.0793c0-3.1556,2.5665-5.7229,5.7212-5.7229h30.1097c3.1546,0,5.7212,2.5673,5.7212,5.7229v30.0793ZM116.0079,367.3752c0,3.1556-2.5665,5.7229-5.7212,5.7229h-30.1097c-3.1546,0-5.7212-2.5673-5.7212-5.7229v-30.0793c0-3.1556,2.5665-5.723,5.7212-5.723h30.1097c3.1546,0,5.7212,2.5673,5.7212,5.723v30.0793ZM121.6767,290.0643c0-3.1556,2.5665-5.7229,5.7212-5.7229h30.1097c3.1547,0,5.7212,2.5673,5.7212,5.7229v30.0793c0,3.1556-2.5665,5.723-5.7212,5.723h-30.1097c-3.1546,0-5.7212-2.5673-5.7212-5.723v-30.0793ZM163.2573,367.3752c0,3.1556-2.5665,5.7229-5.7212,5.7229h-30.1097c-3.1546,0-5.7212-2.5673-5.7212-5.7229v-30.0793c0-3.1556,2.5665-5.723,5.7212-5.723h30.1097c3.1546,0,5.7212,2.5673,5.7212,5.723v30.0793ZM210.4496,414.7117c0,3.1556-2.5665,5.723-5.7212,5.723h-30.1097c-3.1547,0-5.7212-2.5673-5.7212-5.723v-30.0793c0-3.1556,2.5665-5.7229,5.7212-5.7229h30.1097c3.1546,0,5.7212,2.5673,5.7212,5.7229v30.0793Z" style="fill: #3891a6; stroke-width: 0px;"/>
  <path d="M418.5939,292.0626c-8.3091-10.3125-20.6715-16.2271-33.9171-16.2271-12.885,0-24.9344,5.5972-33.2298,15.395-8.2725-9.3937-20.0693-14.7418-32.6658-14.7418-13.2456,0-25.6079,5.9145-33.9171,16.227-6.2134,7.7113-9.6352,17.4114-9.6352,27.3134,0,9.8802,3.4073,19.56,9.5947,27.2631l61.2683,78.7827.0005.0007c2.8677,3.6874,8.321,3.6785,11.1774-.0181h0s61.3714-79.4272,61.3714-79.4272c6.1831-7.7017,9.5877-17.3777,9.5877-27.2543,0-9.902-3.4218-19.6021-9.6352-27.3134Z" style="fill: #ff674d; stroke-width: 0px;"/>
  <rect x="275.36" y="66.36" width="153" height="153" rx="7.0709" ry="7.0709" style="fill: #9266ff; stroke-width: 0px;"/>
  <path d="M142.4528,66.5972c-42.1823,0-76.5001,34.3177-76.5001,76.4999s34.3178,76.5001,76.5001,76.5001,76.4999-34.3178,76.4999-76.5001-34.3178-76.4999-76.4999-76.4999Z" style="fill: #ffcf00; stroke-width: 0px;"/>
</svg>