<?xml version="1.0" encoding="utf-8"?>
<!-- Generator: Adobe Illustrator 28.3.0, SVG Export Plug-In . SVG Version: 6.00 Build 0)  -->
<svg version="1.1" xmlns="http://www.w3.org/2000/svg" xmlns:xlink="http://www.w3.org/1999/xlink" x="0px" y="0px"
	 viewBox="0 0 500 500" style="enable-background:new 0 0 500 500;" xml:space="preserve">
<style type="text/css">
	
		.st0{clip-path:url(#SVGID_00000012470283181796238750000013307100446139750308_);fill:url(#SVGID_00000013908745016536976290000014203083604947036093_);}
</style>
<g id="Layer_1">
</g>
<g id="Layer_2">
	<g>
		<defs>
			<path id="SVGID_1_" d="M250.13,489.01C118.18,489.11,11.2,382.3,11,250.26C10.79,118.11,117.96,10.9,250.16,11
				C382.19,11.1,489.01,117.99,489,250.01C489,382.01,382.16,488.9,250.13,489.01z M249.85,447.52
				c109.02,0.11,197.66-88.46,197.66-197.51c0-108.84-88.17-197.2-197.09-197.53C141.48,52.16,52.69,140.64,52.49,249.71
				C52.29,358.71,140.79,447.41,249.85,447.52z M183.95,291c-18.91,3.66-33.81,14.37-47.19,27.55c-7.95,7.84-8.38,19-1.22,26.59
				c7.22,7.66,18.17,7.8,26.63,0.5c4.8-4.15,9.51-8.48,14.72-12.05c10.46-7.16,21.91-8.49,33.53-3.23
				c6.94,3.14,13.62,6.97,20.12,10.96c9.86,6.06,19.28,12.85,29.22,18.77c39.3,23.41,72.01,16.65,104.11-15.39
				c7.54-7.53,7.45-18.88,0.3-26.2c-7.23-7.41-18.05-7.55-26.19-0.33c-2.1,1.86-4.09,3.84-6.2,5.68
				c-17.75,15.4-31.2,16.96-51.53,5.12c-10.8-6.29-21.01-13.59-31.56-20.32c-15.74-10.04-32.12-18.4-51.41-19.18
				C192.84,289.97,188.33,290.15,183.95,291z M360.83,200.08c-0.02-17.33-14.38-31.73-31.73-31.82
				c-17.55-0.09-32.07,14.54-31.92,32.13c0.15,17.33,14.65,31.65,31.96,31.55C346.45,231.85,360.86,217.37,360.83,200.08z
				 M139.18,199.71c-0.05,17.35,14.18,31.72,31.61,31.91c17.52,0.19,32.14-14.42,32.03-32.02c-0.1-17.44-14.35-31.54-31.85-31.53
				C153.51,168.09,139.23,182.3,139.18,199.71z"/>
		</defs>
		<clipPath id="SVGID_00000129884210842127880130000011537888428024937892_">
			<use xlink:href="#SVGID_1_"  style="overflow:visible;"/>
		</clipPath>
		
			<linearGradient id="SVGID_00000049215770091549245820000005138593578751030916_" gradientUnits="userSpaceOnUse" x1="-30.455" y1="249.9996" x2="530.4551" y2="249.9996">
			<stop  offset="0" style="stop-color:#B44A9B"/>
			<stop  offset="0.1103" style="stop-color:#AE499B"/>
			<stop  offset="0.2853" style="stop-color:#9E4599"/>
			<stop  offset="0.5031" style="stop-color:#843F97"/>
			<stop  offset="0.7524" style="stop-color:#5F3995"/>
			<stop  offset="0.9977" style="stop-color:#2D3492"/>
		</linearGradient>
		
			<rect x="-30.46" y="-30.46" style="clip-path:url(#SVGID_00000129884210842127880130000011537888428024937892_);fill:url(#SVGID_00000049215770091549245820000005138593578751030916_);" width="560.91" height="560.91"/>
	</g>
</g>
</svg>
