<?xml version="1.0" standalone="no"?>
<!DOCTYPE svg PUBLIC "-//W3C//DTD SVG 20010904//EN"
 "http://www.w3.org/TR/2001/REC-SVG-20010904/DTD/svg10.dtd">
<svg version="1.0" xmlns="http://www.w3.org/2000/svg"
 width="700.000000pt" height="700.000000pt" viewBox="0 0 700.000000 700.000000"
 preserveAspectRatio="xMidYMid meet">
<metadata>
Created by potrace 1.14, written by Peter Selinger 2001-2017
</metadata>
<g transform="translate(0.000000,700.000000) scale(0.100000,-0.100000)"
fill="#000000" stroke="none">
<path d="M2510 6989 c-1110 -25 -1541 -91 -1873 -287 -99 -58 -242 -192 -302
-282 -169 -254 -255 -609 -295 -1210 -32 -490 -49 -1854 -31 -2530 29 -1108
61 -1435 171 -1772 182 -555 555 -780 1415 -857 783 -70 3155 -67 3870 4 534
54 861 166 1076 372 286 273 398 684 439 1608 17 377 24 1941 11 2505 -20 870
-55 1211 -158 1535 -183 572 -559 800 -1438 875 -520 43 -1869 62 -2885 39z
m-227 -963 c382 -99 680 -397 784 -783 24 -88 27 -116 27 -268 0 -152 -3 -180
-27 -267 -67 -252 -231 -486 -437 -625 -95 -64 -154 -93 -260 -131 -594 -209
-1241 138 -1407 756 -24 87 -27 115 -27 267 0 152 3 180 27 268 111 416 441
722 864 802 120 22 331 14 456 -19z m3748 5 l29 -29 0 -1020 c0 -1012 0 -1019
-20 -1045 -12 -15 -38 -31 -58 -37 -56 -15 -1976 -13 -2022 3 -24 8 -41 23
-52 47 -17 33 -18 103 -18 1027 0 594 4 1002 9 1016 6 14 20 35 32 46 l23 21
1024 0 1024 0 29 -29z m-2970 -2944 c39 -30 39 -24 39 -1077 l0 -1022 -29 -29
-29 -29 -1027 0 -1027 0 -29 29 -29 29 0 1022 c0 1053 0 1047 39 1077 23 18
2069 18 2092 0z m2533 -7 c114 -29 189 -73 281 -165 61 -60 90 -99 117 -155
87 -180 89 -369 4 -545 -39 -81 -916 -1225 -967 -1262 -36 -26 -57 -28 -95
-11 -29 14 -912 1140 -964 1231 -98 170 -103 392 -12 577 46 95 168 221 259
268 227 119 511 87 697 -80 l56 -50 61 55 c150 136 364 188 563 137z"/>
<path d="M1784 2973 c-12 -2 -30 -13 -40 -25 -17 -18 -19 -41 -19 -264 0 -240
0 -244 23 -266 22 -23 26 -23 267 -23 241 0 245 0 267 23 23 22 23 26 23 267
0 241 0 245 -23 267 -22 22 -28 23 -250 24 -125 1 -237 0 -248 -3z"/>
<path d="M2444 2970 c-51 -20 -54 -37 -54 -287 0 -231 0 -232 24 -260 l24 -28
247 0 247 0 19 24 c18 21 19 42 19 263 0 137 -4 247 -10 258 -5 10 -24 23 -41
29 -38 13 -443 14 -475 1z"/>
<path d="M1110 2303 c-50 -18 -50 -20 -50 -285 0 -235 1 -249 20 -268 19 -19
33 -20 269 -20 l250 0 20 26 c20 25 21 39 21 261 l0 235 -29 29 -29 29 -229
-1 c-125 0 -235 -3 -243 -6z"/>
<path d="M1753 2286 l-28 -24 0 -245 c0 -227 1 -246 19 -266 18 -20 28 -21
271 -21 243 0 253 1 271 21 18 20 19 39 19 266 l0 245 -28 24 c-28 24 -29 24
-262 24 -233 0 -234 0 -262 -24z"/>
<path d="M1086 1619 l-26 -20 0 -250 c0 -236 1 -250 20 -269 19 -19 33 -20
269 -20 l250 0 20 26 c20 25 21 39 21 255 0 146 -4 237 -11 252 -19 43 -46 47
-288 47 -216 0 -230 -1 -255 -21z"/>
<path d="M2434 1628 c-39 -19 -44 -48 -44 -287 0 -216 1 -230 21 -255 l20 -26
250 0 c236 0 250 1 269 20 19 19 20 33 20 269 l0 250 -26 20 c-25 20 -39 21
-258 20 -137 0 -240 -5 -252 -11z"/>
</g>
</svg>
