<?xml version="1.0" standalone="no"?>
<!DOCTYPE svg PUBLIC "-//W3C//DTD SVG 20010904//EN"
 "http://www.w3.org/TR/2001/REC-SVG-20010904/DTD/svg10.dtd">
<svg version="1.0" xmlns="http://www.w3.org/2000/svg"
 width="700.000000pt" height="700.000000pt" viewBox="0 0 700.000000 700.000000"
 preserveAspectRatio="xMidYMid meet">
<metadata>
Created by potrace 1.14, written by Peter Selinger 2001-2017
</metadata>
<g transform="translate(0.000000,700.000000) scale(0.100000,-0.100000)"
fill="#000000" stroke="none">
<path d="M3367 6845 c-1 -2 -52 -5 -113 -9 -60 -4 -119 -8 -130 -10 -10 -2
-46 -7 -79 -11 -71 -8 -253 -42 -340 -63 -282 -70 -607 -198 -835 -329 -226
-130 -396 -250 -570 -402 -528 -461 -905 -1088 -1059 -1762 -16 -74 -32 -147
-35 -164 -31 -199 -34 -227 -42 -335 -13 -167 -6 -602 10 -629 2 -4 7 -37 11
-74 3 -37 8 -76 10 -86 2 -10 6 -34 9 -52 3 -19 12 -68 21 -109 9 -41 18 -83
20 -92 54 -254 213 -645 371 -914 148 -252 310 -461 524 -674 469 -468 1059
-783 1715 -914 71 -14 103 -19 267 -41 188 -25 544 -25 763 0 538 63 1061 259
1505 564 763 525 1276 1338 1415 2241 20 136 25 174 32 275 12 174 5 524 -12
626 -2 13 -9 62 -15 109 -17 128 -76 384 -120 524 -141 438 -374 850 -683
1204 -63 73 -264 268 -347 338 -263 222 -608 431 -890 540 -36 14 -85 34 -110
44 -226 91 -592 171 -900 196 -79 6 -387 13 -393 9z m352 -589 c57 -4 107 -8
110 -10 3 -2 37 -7 76 -11 38 -4 72 -8 75 -10 3 -2 21 -6 41 -9 84 -13 314
-78 434 -122 167 -61 418 -188 565 -286 573 -381 983 -952 1155 -1610 38 -147
39 -151 60 -293 36 -240 38 -515 5 -775 -6 -47 -13 -92 -15 -100 -2 -8 -7 -31
-10 -50 -42 -250 -165 -587 -302 -830 -333 -588 -856 -1028 -1493 -1257 -84
-30 -272 -84 -340 -97 -14 -3 -35 -7 -46 -10 -12 -2 -39 -7 -60 -11 -22 -3
-50 -7 -64 -10 -202 -32 -570 -37 -747 -10 -12 2 -57 9 -100 15 -43 6 -143 27
-223 47 -685 166 -1291 601 -1676 1205 -141 220 -299 591 -349 816 -24 105
-43 203 -49 252 -3 25 -8 55 -10 67 -18 88 -24 376 -13 543 62 938 632 1809
1468 2244 239 125 498 220 714 261 22 5 45 9 50 10 21 5 92 16 188 30 17 2 70
7 117 11 47 3 86 7 87 8 4 3 260 -2 352 -8z"/>
<path d="M2295 4635 c-154 -36 -278 -153 -326 -306 -86 -276 130 -569 421
-569 193 0 358 117 426 300 24 66 26 197 4 269 -66 220 -303 358 -525 306z"/>
<path d="M4519 4633 c-154 -31 -280 -141 -334 -293 -23 -63 -27 -185 -9 -252
59 -229 297 -375 525 -322 345 80 465 499 215 747 -106 106 -252 150 -397 120z"/>
<path d="M2718 2945 c-2 -1 -31 -5 -64 -8 -116 -11 -220 -43 -349 -107 -175
-86 -402 -276 -451 -375 -70 -144 11 -318 167 -359 94 -24 178 2 273 86 218
192 338 249 493 234 137 -13 253 -74 718 -373 77 -49 174 -108 215 -130 72
-39 240 -107 291 -117 128 -26 177 -32 259 -30 276 5 529 125 786 373 84 81
107 124 112 211 7 110 -49 198 -157 248 -98 45 -208 16 -311 -81 -262 -247
-451 -288 -712 -156 -75 38 -143 80 -347 214 -221 145 -279 180 -392 236 -92
46 -252 104 -313 114 -17 3 -43 8 -59 11 -29 6 -154 13 -159 9z"/>
</g>
</svg>
