<?xml version="1.0" encoding="UTF-8"?>
<svg id="Layer_1" data-name="Layer 1" xmlns="http://www.w3.org/2000/svg" version="1.1" viewBox="0 0 512 512" width="512px" height="512px">
  <defs>
    <style>
      .cls-1 {
        fill: #242424;
        stroke-width: 0px;
      }
    </style>
  </defs>
  <path class="cls-1" d="M182.43,293.28h30.42c3.19,0,5.78,2.59,5.78,5.78v30.39c0,3.19-2.59,5.78-5.78,5.78h-30.42c-3.19,0-5.78-2.59-5.78-5.78v-30.39c0-3.19,2.59-5.78,5.78-5.78Z"/>
  <path class="cls-1" d="M182.43,388.83h30.42c3.19,0,5.78,2.59,5.78,5.78v30.39c0,3.19-2.59,5.78-5.78,5.78h-30.42c-3.19,0-5.78-2.59-5.78-5.78v-30.39c0-3.19,2.59-5.78,5.78-5.78Z"/>
  <path class="cls-1" d="M134.72,293.28h30.42c3.19,0,5.78,2.59,5.78,5.78v30.39c0,3.19-2.59,5.78-5.78,5.78h-30.42c-3.19,0-5.78-2.59-5.78-5.78v-30.39c0-3.19,2.59-5.78,5.78-5.78Z"/>
  <path class="cls-1" d="M87.01,388.83h30.42c3.19,0,5.78,2.59,5.78,5.78v30.39c0,3.19-2.59,5.78-5.78,5.78h-30.42c-3.19,0-5.78-2.59-5.78-5.78v-30.39c0-3.19,2.59-5.78,5.78-5.78Z"/>
  <path class="cls-1" d="M505.58,189.63c-.11-7.51-.07-15.03-.21-22.54-.31-16.08-1.01-32.14-2.48-48.15-1.2-13.11-2.94-26.15-6.17-38.95-1.94-7.69-4.43-15.18-7.84-22.36-7.86-16.57-20.35-28.28-37.13-35.54-10.29-4.46-21.06-7.22-32.05-9.19-13.21-2.36-26.55-3.63-39.93-4.49-19.76-1.27-39.54-1.72-59.34-1.91-5.41-.05-10.82-.13-16.24-.22-.63-.01-1.26-.19-1.89-.28h-92.14c-.79.1-1.58.27-2.38.29-16.64.3-33.28.44-49.91.9-15.01.42-30.02,1.22-44.96,2.87-14.7,1.62-29.28,3.92-43.37,8.66-6.06,2.04-11.9,4.57-17.45,7.77-13.65,7.87-23.25,19.29-29.57,33.61-4.06,9.21-6.72,18.84-8.67,28.68-2.21,11.18-3.54,22.48-4.48,33.83-1.64,19.73-2.21,39.51-2.48,59.3-.12,8.72-.36,17.44-.57,26.15-.02.71-.22,1.42-.33,2.12v91.66c.12.79.32,1.57.34,2.36.28,13.97.39,27.95.85,41.92.45,13.48,1.05,26.96,1.96,40.42.94,13.86,2.62,27.65,5.67,41.24,1.79,7.97,4.12,15.77,7.32,23.3,7.84,18.46,21.02,31.52,39.49,39.29,9.88,4.16,20.17,6.83,30.69,8.73,12.97,2.35,26.06,3.63,39.21,4.5,21.45,1.43,42.94,1.85,64.43,1.98,2.91.02,5.82.04,8.73.1.71.02,1.41.21,2.12.33h98.93c.95-.11,1.9-.32,2.85-.33,10.51-.13,21.01-.1,31.52-.38,12.36-.33,24.72-.75,37.06-1.44,15.25-.85,30.44-2.29,45.46-5.21,9.53-1.86,18.86-4.37,27.86-8.09,19.23-7.94,32.68-21.54,40.53-40.79,4.11-10.08,6.74-20.55,8.6-31.23,2.4-13.78,3.64-27.69,4.5-41.65.99-16.22,1.41-32.45,1.42-48.7,0-3.88.11-7.76.21-11.63.02-.71.19-1.41.29-2.12v-116.88c-.14-2.64-.38-5.29-.42-7.93ZM227.22,433.54c0,3.16-2.56,5.73-5.73,5.73H78.36c-3.16,0-5.73-2.57-5.73-5.73v-143.12c0-3.16,2.56-5.73,5.73-5.73h143.13c3.16,0,5.73,2.57,5.73,5.73v143.12ZM149.93,227.87c-42.62,0-77.29-34.67-77.29-77.29s34.67-77.29,77.29-77.29,77.29,34.67,77.29,77.29-34.67,77.29-77.29,77.29ZM428.97,356.22l-62.01,80.25c-2.89,3.73-8.4,3.74-11.29.02h0s-61.9-79.6-61.9-79.6c-6.25-7.78-9.69-17.56-9.69-27.55s3.46-19.8,9.73-27.6c8.4-10.42,20.89-16.39,34.27-16.39s24.65,5.4,33,14.89c8.38-9.9,20.56-15.55,33.57-15.55s25.87,5.98,34.27,16.39c6.28,7.79,9.73,17.59,9.73,27.6s-3.44,19.75-9.69,27.54ZM438.79,220.49c0,3.95-3.2,7.14-7.14,7.14h-140.29c-3.95,0-7.14-3.2-7.14-7.14V80.19c0-3.95,3.2-7.14,7.14-7.14h140.29c3.95,0,7.14,3.2,7.14,7.14v140.29Z"/>
  <path class="cls-1" d="M134.75,341h30.42c3.19,0,5.78,2.59,5.78,5.78v30.39c0,3.19-2.59,5.78-5.78,5.78h-30.42c-3.19,0-5.78-2.59-5.78-5.78v-30.39c0-3.19,2.59-5.78,5.78-5.78Z"/>
  <path class="cls-1" d="M87.01,341h30.42c3.19,0,5.78,2.59,5.78,5.78v30.39c0,3.19-2.59,5.78-5.78,5.78h-30.42c-3.19,0-5.78-2.59-5.78-5.78v-30.39c0-3.19,2.59-5.78,5.78-5.78Z"/>
</svg>
